<svg xmlns="http://www.w3.org/2000/svg" viewBox="0 0 150 150">
<!-- SVG created with Arrow, by QuiverAI (https://quiver.ai) -->
  <path d="m135.5 87.8z"/>
  <path d="m135.5 87.8z"/>
  <path d="m135.5 86.4"/>
  <path d="m135.4 86.2z"/>
  <path d="m135.4 86.2z"/>
  <path d="m135.4 86.2z"/>
  <path d="m135.5 87.8c-0.2-1.1-0.1-2.9-1.5-3.2-3.7-1.1-5-0.8-5.8-3.4-1.8-7.6-5.2-13.8-10.6-22.3l-4.6 6.6c-0.5 0.9-0.5 1 0.1 1.8 4 5.6 7 13.8 7.4 21.9 0.1 1.6 2.9 0.9 4.5 1.2 0.6 0.1 0.6 0.6 0.6 1-0.2 9.7-3.7 20.3-11.1 28.9-5.2 6-13.2 12.2-23.4 15.2-4.1 1.2-9.7 2.3-15.1 2.3-5.8 0.1-11.1-0.9-15.5-2.3-3.4-1.1-10-4.3-13.9-7.7-0.9-1.1-2.2-0.8-2 1.3 0 4.2 0.1 4.1-0.7 6.4 0 0.5 0 0.6 1.3 1.6 2.5 1.9 5 3.4 7.4 4.8 1.3 0.8 1.7 0.3 2.9-0.7 1.6-1.5 2.4-2.7 4.4-2.3 1.5 0.4 3.3 0.8 5.2 1 2.8 0.5 2.6 0.6 3.3 2.2l1 4 0.7 1c1 0.2 1.7 0.3 2.9 0.6 1.1 0.1 9.4 0.4 10.1-0.3 0.5 0 0.5-0.8 0.7-1.4l1.1-4.1c0.6-1.5 1.2-1.8 2.7-2 2.4-0.4 4.6-0.9 6.9-1.5 2.1-0.5 3 1 5 3 0.7 1 1.4 0.7 2.6 0.1 2.5-1.4 5.4-3.1 7.4-4.6 1-0.8 0.9-1 0.4-2.4-1.4-3.3-0.9-3.6 0.6-5 2-1.8 3.9-3.4 5.4-5.1 1.6-1.8 2.2-1.9 4.1-1l2.4 1.1c0.3 0.1 0.8-0.4 1.2-0.9 1.5-2.1 3.4-5.1 4.5-7 1-2-3.1-4-3-6.1 0-0.6 1.8-5.5 2.9-9.9 0.6-1.6 1.7-2 3.9-2.5 2.1-0.5 3.5-0.1 3.7-2.2 0.1-1.8 0.2-6.2-0.1-8.1z"/>
  <path d="m108.1 72.8c-2.1 2.6-6.7 7.1-9.6 9.4-0.9 0.9-0.6 0.8 0.1 2.3 2.1 4.1 2.9 6.9 2.8 10.9-0.2 6.5-4.2 15.5-12.3 19.6-3.2 1.5-7.9 2.6-12.7 2.6-5.5 0-11.5-1.4-15.7-4.6-4.7-3.4-9-10-9-17.8 0-5 2-9.7 4.8-13.6 1-1.2 1-0.7 2.4 0.9 0.6 0.7 2.8 2.9 3.3 2.5 0.7-8.3 7.3-12 11.4-18.1 2.8-4 4.1-9 4.6-13.4 2.5 2.1 6.5 8.1 7.8 12 2.6 7.5 2.2 13.4-0.3 20.7-0.2 0.9 1.4 0 1.7-0.2 5.6-2.5 11.1-9.1 14.2-13.1l14.6-19.3c1.2-1.7 0.8-1.7 2.3-0.6l6.7 6.9 2.2-31.9-29.4 13.1 7.9 3.3c1.7 1 2.1 1.1 1.3 2.1l-10.6 13c-2.7-7.9-6.7-12.6-9.2-17.1-1.5-2.8-3-5.9-3.5-10-0.3-2.7 0.8-1.9 3.5-1.4l6 1.7-16.9-30.6-15.3 30.5c1.9-0.5 6.8-2.4 8.3-2.2 1.1 0.1 0 6.5-1.8 11.2-1.7 5-4.6 9-7 12.8-3.6 5.6-4.8 10.6-4.7 16.3-1.6-1.3-3.3-7.1-2.6-10.6-4.9 5.5-8 10.8-9.8 15.3-1.6 4.2-3 9.7-3 13.2 0.1 16 8.9 26.3 18.8 31 5 2.4 10.2 4.1 17.3 4.2 13.5 0.1 25.7-5.9 31.8-16.9 3.1-5.3 4.1-10.7 4.1-16.8 0-6.6-1.7-12.2-4.5-17.6v0.3z"/>
  <path d="m35.4 114.4c-3.3-5.7-7-13.5-7.2-22.9 0-1 1-1 3.3-1 1.9 0 1.5-1.5 1.7-3.3 1.4-13.6 10.5-23.8 19-32 1.8-1.7 1.2-2.6 3.3 0.9l5.6-9.2c0.5-0.8 0.5-1.9 0-2.7l-10-9.8c-0.7-0.7-2.2-0.8-3.1 0.2l-12.1 11.1c-0.9 0.9-0.7 2-0.3 2.5 2.3 2.8 4.5 4.8 4.3 6.2v1.5c-0.9 2.2-2.5 1.7-6.4 1-1.1-0.2-1.3-0.3-2.3 1l-4 6.6c-1 2.1 3.3 3.5 3.2 5.5 0 1.1-1.7 4.1-2.4 6.6l-1.3 4.4c-0.7 1.9-2.7 1.7-4.6 2.4-0.5 0.2-0.9 1.1-1 2.5-0.4 2.6-0.5 8.7 0.5 10.2 1.3 1.4 3.8 0.5 4.5 4 1.8 6.3 3.1 9.4 4.1 11.5 0.5 1.1-5.2 5-7.2 7.3-0.5 0.6-2-0.5-3.4 0.6-2.4 2.2 0 4.9 1.8 4.6 2.5 0 3-2.4 3-3.2 0.1-1.3 4.8-4.8 7.2-7 0.8-0.4 2.4 2.7 3.8 1.1v-0.6zm13.5-75c0.2-0.9 1.2-1.4 1.8-0.8l6.9 6.3c1 0.8 0.1 2-1 1.7l-7.7-6.9v-0.3z"/>
  <path d="m32.1 36-0.4 3s1.4 2.1 2.9 1.7c1-0.1 2.9-2.3 2.9-2.3l-5.4-2.4z"/>
  <path d="m41.1 30.4-3-1-1.5-1-9.2-8.7c-1.3-1.2-2.3-0.6-3.3-1.1l-3.6-3.1c-1.4-0.5-2.4 1-1.4 1.7l0.9 0.7 2.4 3.1c0.5 0.6-0.3 1.6-0.2 3.1 0.2 1.4 2.2 2.8 9.2 10.3 1 1.2 0.2 2.6 0.7 3.7l0.6 0.9 1.2 1c0.5 0.5 1.7 1.1 3 0.9l6.2-5.9c1.5-1.4-0.5-3.6-2-4.6z"/>
  <path d="m91.6 87.9c-4.2 0-6.5 3.6-5.5 6.8l-7.1 7.4c-0.4 0.4-1.1 0-1.1-0.5v-17.2c0-1.2 3.8-1.4 3.8-6-0.1-2.3-2.2-5.4-5.2-5.4s-5.8 2.4-5.8 5.1c0 2.4 1 2.9 0.9 3.1-1 1.8-6.6 6.4-7.1 7.4-0.3 0.4-1.1-0.5-2.9-0.5-2.6 0-5.1 2.3-5.1 4.9 0 2.7 2.4 5.1 5 5.1 2 0 2.9-0.6 3.1-0.5l6.8 7c0.6 0.9-0.2 1 0.2 3.3 1.3 5 6.3 5.7 8.6 3.5 2.7-2.4 1.3-5.8 1-5.8l7.5-8c0.4 0 1.3 0.5 2.7 0.4 2.6 0 5.1-1.9 5.2-4.4 0.3-2.7-2-5.5-5-5.7zm-16.9 14c0 0.5-0.8 0.2-0.8 0.2l-7.2-7.4c0.8-1.8 0-3.5 0.4-3.7l7-7c0.5-0.6 0.6 0.1 0.6 0.5v17.4z"/>
  <path d="m37 116.5c-0.5-0.5-0.6-0.4-1.1 0l-10.8 10c-0.9 0.9-1.9 0.4-5.2 0.5-1.3-2.6-4.5-2.8-5.5 0.1-0.4 3.3 3.2 5 5.5 2.1h4.2c0.9 0 1.4-0.6 2-1.1l11.3-10.4c0.5-0.6 0.3-0.6 0.2-1l-0.6-0.2z"/>
  <path d="m42.9 125.1-11.4 11.6c-2.1-0.3-3.6 1.2-3.5 2.8 0.1 3.4 4.4 4.2 5.9 1.1 0.5-1.4-0.4-2.6 0-3l10.6-10.7c0.5-0.4 0.4-1-0.4-1.9-0.5-0.4-1-0.3-1.2 0.1z"/>
  <path d="m38.2 120-14.3 14.9c-0.5 0.6-0.5 0.6 0.1 1.2 0.4 0.3 0.6 0 1-0.2l14.1-13.5 3.4 2.6-3.4-2.5c0.8-0.9 0.8-2.1 0.3-2.4-0.5-0.5-0.8-0.5-1.2-0.1z"/>
  <path d="m28.5 143.1c-2 0-2 3 0 3 2.1 0 2.1-3 0-3z"/>
  <path d="m122.4 93.9c-0.3-0.9-1.3-0.5-5.3-1-1.1 0-1.5 0-1.6 2.2-2 11.6-9 21-18 26.5-5.1 3.1-12.4 6.3-21.4 6.3-6.5 0-12.7-1.8-16.7-3.8-8.8-4.2-18.4-13.5-20.9-26.2l-0.6-3.8c-0.3-1.5-1-1.1-4.3-0.9-2.2 0.2-3.1-0.2-2.9 1.3 2.2 18.4 15.4 35.1 33.3 38.6 6.4 1.9 14.1 2.3 20.6 1.4 19.3-2.4 34.9-17.6 37.4-36.6 0.2-1.5 0.5-3.4 0.4-4z"/>
</svg>