<svg xmlns="http://www.w3.org/2000/svg" viewBox="0 0 150 71">
<!-- SVG created with Arrow, by QuiverAI (https://quiver.ai) -->
  <style type="text/css">.cls-0 {fill:#E1E1E1;}
.cls-1 {fill:#050505;}</style>
  <path class="cls-1" d="m62.6 21.7h4.9v19h-4.9v-19z"/>
  <path class="cls-1" d="m71.3 27.8c0.3-4.8 2.5-6 6.2-6.1h13.3v4.1h-12.8c-1.3 0.1-1.9 1.1-1.9 1.8v6.6c0.1 1.5 0.9 2.3 2.3 2.4h8v-6.4h4.9v10.4h-13.8c-4 0-6.2-1.6-6.2-6.6v-6.2z"/>
  <path class="cls-1" d="m95.1 21.7h4.9l11.2 11.7v-11.7h5.1v18.9h-4.8l-11.4-11.8v11.7h-5v-18.8z"/>
  <path class="cls-1" d="m119.9 21.7h4.9v18.9h-4.9v-18.9z"/>
  <path class="cls-1" d="m129.1 36.5h11.6c1.4-0.1 1.5-0.9 1.5-1.5 0-1.2-0.3-1.8-2-1.8h-6.2c-4.3-0.1-5.2-2.1-5.3-5.4 0.1-2.9 0.9-6.1 5.3-6.1h11.8v4h-10.8c-1.3 0-1.2 1.1-1.2 1.6 0 0.7 0.3 1.6 1.6 1.6h5.6c4.2 0.2 5.6 2 5.6 4.5v2.2c0.1 3.6-1.7 5-5.6 5h-11.9v-4.1z"/>
  <path class="cls-1" d="m62.5 45.7h0.9v6.5h-0.9v-6.5z"/>
  <path class="cls-1" d="m75.9 52.1v-3.8l-2.1 3.5h-0.5l-2-3.4v3.7h-1.5v-6.4h1.3l2.5 4.2 2.5-4.2h1.2v6.4h-1.4z"/>
  <path class="cls-1" d="m78.9 49.4v-3.7h1.5v3.6c0 1.1 0.5 1.6 1.5 1.6 0.9 0 1.5-0.5 1.5-1.6v-3.6h1.5v3.7c0 1.8-1.1 2.8-2.9 2.8-2 0-3.1-0.9-3.1-2.8z"/>
  <path class="cls-1" d="m86.8 45.7h1.7v5.3h3.3v1.1h-4.9v-6.4h-0.1z"/>
  <path class="cls-1" d="m93.8 47h-1.9v-1.3h5.4v1.3h-2v5.1h-1.5v-5.1z"/>
  <path class="cls-1" d="m98.6 45.7h1.5v6.4h-1.5v-6.4z"/>
  <path class="cls-1" d="m108.2 52.1v-3.8l-2 3.5h-0.6l-1.9-3.4v3.7h-1.7v-6.4h1.5l2.4 4.2 2.3-4.2h1.4v6.5h-1.4v-0.1z"/>
  <path class="cls-1" d="m111.1 48.9c0-1.9 1.5-3.3 3.6-3.3s3.6 1.4 3.6 3.3-1.5 3.3-3.6 3.3-3.6-1.4-3.6-3.3zm5.6 0c0-1.2-0.8-2-1.9-2s-2 0.8-2 2 0.8 2.2 2 2.2 1.9-0.9 1.9-2.2z"/>
  <path class="cls-1" d="m119.5 45.7h3c2.1 0 3.7 1.3 4.1 3.2-0.1 1.9-1.4 3.3-3.5 3.2h-3.5v-6.4h-0.1zm3 5.3c1.2 0 2.1-0.7 2.1-2s-0.9-2-2.1-2h-1.3v4h1.3z"/>
  <path class="cls-1" d="m132.2 50.9h-2.9l-0.5 1.2h-1.7l3-6.4h1.6l2.7 6.4h-1.5l-0.7-1.2zm-0.5-1.1-0.9-2.5-1.1 2.5h2z"/>
  <path class="cls-1" d="m135.4 45.7h1.4v5.3h3.1v1.1h-4.5v-6.4z"/>
  <path class="cls-1" d="m145.5 45.7h0.9v6.4h-0.9v-6.4z"/>
  <path class="cls-1" d="m74.5 55.3-2.1 6.7h-1.6l-1.3-4.6-1.3 4.6h-1.7l-2.1-6.7h1.8l1.2 4.8 1.4-4.8h1.5l1.4 4.9 1.5-4.9h1.3z"/>
  <path class="cls-1" d="m80.3 60.7v1.3h-4.7v-6.7h4.5v1.3h-3.1v1.3h2.8v1.2h-2.8v1.6h3.3z"/>
  <path class="cls-1" d="m81.8 55.3h1.5v5.3h3.3v1.4h-4.8v-6.7z"/>
  <path class="cls-1" d="m87.8 55.3h3c2.1-0.2 3.6 1.4 3.5 3.2 0 2-1.4 3.4-3.5 3.4h-3v-6.6zm3 5.3c1.2 0 2-0.7 2-1.9 0-1.3-0.7-2.1-2-2.1h-1.4v4h1.4z"/>
  <path class="cls-1" d="m100.6 60.7v1.3h-5v-6.7h4.8v1.3h-3.3v1.3h2.8v1.1h-2.8v1.7h3.5z"/>
  <path class="cls-1" d="m104.7 60h-1.1v2h-1.7v-6.7h2.8c1.8 0 2.9 0.9 2.9 2.4 0 0.9-0.5 1.7-1.2 2.1l1.3 2.3h-1.5l-1.5-2.1zm0-3.4h-1.2v2h1.2c0.9 0 1.3-0.4 1.3-1 0-0.7-0.4-1-1.3-1z"/>
  <path class="cls-1" d="m116.3 60.6h-2.9l-0.6 1.5h-1.8l2.9-6.8h1.6l2.8 6.8h-1.5l-0.5-1.5zm-0.4-1.2-1.1-2.7-0.9 2.7h2z"/>
  <path class="cls-1" d="m123.4 58.5h1.3v2.7c-0.7 0.5-1.6 0.8-2.5 0.8-2.1 0-3.7-1.5-3.7-3.5s1.5-3.4 3.6-3.4c1.1 0 2.1 0.4 2.7 1.2l-1 1c-0.4-0.5-1.1-0.8-1.7-0.8-1.2 0-2 0.8-2 2s0.8 2.2 2 2.2c0.4 0 0.8-0.1 1.2-0.2v-2h0.1z"/>
  <path class="cls-1" d="m131.7 60.7v1.3h-5.2v-6.7h4.8v1.3h-3v1.3h2.9v1.1h-2.9v1.7h3.4z"/>
  <path class="cls-1" d="m138.6 55.3v6.7h-1.2l-3-4.2v4.2h-1.3v-6.7h1.3l3 4v-4h1.2z"/>
  <path class="cls-1" d="m141.4 56.6h-1.8v-1.3h5.1v1.3h-1.9v5.4h-1.4v-5.4z"/>
  <path class="cls-1" d="m50.9 46.3 0.4-0.5 0.1-0.1 2.6-0.8c0.1-0.1 0.2-0.2 0.2-0.4 0.1-1.4 0.1-3.2-0.1-5.3l-2.9-1c-0.6-3.3-2.1-6.5-4.6-10.3l-2.2 3.2c2 3 3.6 6.7 3.5 10.6l2 0.1c0.2 8.9-6.4 19.7-19.4 20.6-5.4 0.3-10.9-1.4-15.1-5.7l-0.6 0.7-4 4.4c-1.3 0-2.5 1.7-1.3 2.7 1.3 1 2.9-1 1.9-2l3.9-4.2 0.3-0.1 0.4 0.4c0.1 0.1 0.2 0.3 0.1 0.4l-0.4 2.8 4 2.7 1.8-1.5 4.1 0.7 0.9 2.9c0.1 0.3 5.7 0.9 6 0l0.8-2.9 4.6-1.1 1.4 1.9 4.3-2.5-0.6-2.6c0.9-0.7 2.6-2.8 3.6-3.5l2.3 0.9 2.3-3.9-1.5-2.3c0.5-1.3 0.9-2.8 1.2-4.3z"/>
  <path class="cls-1" d="m10.1 51.2-3.1 2.8c-2.1-0.3-2.5 2.2-0.9 2.5 1.5 0.1 1.6-1.9 1.6-1.9l2.8-2.8 1.2 0.8 0.4 0.8-4.7 4.4-2-0.4c-0.5-0.9-2.2-0.9-2.2 0.7 0.2 1.8 2.4 1.4 2.4 0.5l2 0.1 5-4.7 0.7 0.6-6.3 6.9 0.3 0.5 6-5.9 0.9 0.6 0.2-0.5-0.7-0.8v-0.8l-0.7-1-1-1.5v-0.4c-1.5-2.8-2.8-6.8-2.8-9.9h2.1c-0.4-4.4 2.4-10.9 8.1-16.1l0.5-0.3 0.6 1.5 2.7-4.8-5.3-5.4-6.1 6.3 2.4 3.2-0.9 1.2-2.5-0.7-2.3 3.9 1.6 2c-0.8 1.9-1.5 3.6-1.7 5.5l-2.4 0.6c-0.2 0.7-0.3 5.3 0 5.7l2.1 1c0.4 2.3 1.5 5.1 2 5.8zm7.4-31.8 0.5-0.4 3.5 3.2-0.4 0.9-3.6-3.7z"/>
  <path class="cls-1" d="m12.4 20.6 3.3-3.5 0.1-0.1-0.4-0.4-1.4-1.6-0.7 0.3-4.9-4.7-0.7 0.1-2.1-1.7h-0.8l2 3.1-0.4 0.9 4.4 4.9-0.3 1.1 1.9 1.6z"/>
  <path class="cls-1" d="m4.9 64.2-0.5 0.5 0.4 0.8 0.8-0.5-0.2-0.8h-0.5z"/>
  <path class="cls-1" d="m6.5 62.6-0.7 0.5 0.4 0.7 0.7-0.7-0.4-0.5z"/>
  <path class="cls-1" d="m8.5 65.5 0.4 1.1 0.8-0.1v-1.5l-1.2 0.5z"/>
  <path class="cls-1" d="m26.6 15.3c0.3 6.2-4.5 11-5.3 13.6-0.4 1.2-0.5 4.2-0.5 4.2-1.2-1.2-1.4-5.1-1.4-5.1-0.5 1.9-5.1 5.4-5.1 14 0.9 8.6 7 14.3 14.9 14.3 8.3 0 15.3-5.7 15.3-14.9-0.1-2.8-0.7-5.6-1.7-7.9l-4.4 4.8c0.9 1.5 1.5 3.2 1.5 5.4 0 3.7-2.8 9.7-9.9 9.7-7.5 0-11.1-4.9-11.1-10.1 0-1.9 1.8-5.9 2.4-5.9l2 2.3c0-5.4 6.6-7.4 6.8-14.2 2.1 1.9 4.7 6.4 4.2 10.7l-0.9 4.1c4.3-2.5 7.5-7.8 13-15.3l3.5 3.1 0.9-13.8-12.4 5.9 4 2-4.5 6c-0.8-4.5-5.3-7.7-5.3-12.8l4.1 1.1-7.2-13.4-6.7 13.4 3.8-1.2z"/>
  <path class="cls-1" d="m29.4 34.1c-1.3 0-2.5 1.2-2.5 2.4l0.4 1.3-3.1 3.2c-1.2-0.7-3-0.5-3.1 1.5-0.4 2.4 2.1 3.3 3 2.4l3.2 2.9c-0.7 1.3 0.7 3.5 2.2 3.5 1.7 0 2.9-2.4 1.9-3.2l3.4-3.1c1.1 0.4 3.3-0.5 3.3-1.7-0.4-4.7-5.3-2.8-4.8 0.1l0.1 0.6-3.3 3v-8.5c2-0.4 2-2 1.5-3.6l-1.2-0.7-1-0.1zm-4.1 8 3.5-3.5 0.1 8.4-3.3-2.8 0.1-1.6-0.4-0.5z"/>
  <path class="cls-1" d="m29.5 58.1c-8.3 0-15.7-6.3-16.3-15.2h-3.1c0.4 8.9 7.6 18.4 19.4 18.2 11.4 0.2 19.1-9.2 19-18.1l-2.7-0.1c-0.6 8-7 15.2-16.3 15.2z"/>
</svg>